<svg xmlns="http://www.w3.org/2000/svg" xmlns:xlink="http://www.w3.org/1999/xlink" viewBox="0 0 24.77 29.58"><defs><style>.cls-1{fill:#656256;stroke:#fff;stroke-miterlimit:10;stroke-width:0.41px;}.cls-2{fill:url(#linear-gradient);}.cls-3,.cls-4{fill:#fff;}.cls-3{opacity:0.8;}</style><linearGradient id="linear-gradient" x1="14.03" y1="13.97" x2="10.65" y2="19.05" gradientUnits="userSpaceOnUse"><stop offset="0" stop-color="#938ba1"/><stop offset="1" stop-color="#838bc5"/></linearGradient></defs><title>Asset 1</title><g id="Layer_2" data-name="Layer 2"><g id="Layer_1-2" data-name="Layer 1"><path class="cls-1" d="M11.83,11.66a6.5,6.5,0,0,0,5-2.06c2-2.29.14-9.21.14-9.21S11.1,5.83,11,7.9A8.53,8.53,0,0,0,11.83,11.66Z"/><path class="cls-2" d="M21.38,19a10.17,10.17,0,0,1-.85,4.13,10.32,10.32,0,0,1-2.3,3.35,10.72,10.72,0,0,1-3.4,2.27,10.51,10.51,0,0,1-4.18.84,10.33,10.33,0,0,1-4.15-.84,10.21,10.21,0,0,1-3.38-2.27A10.72,10.72,0,0,1,.85,23.12,10,10,0,0,1,0,19a10.12,10.12,0,0,1,.85-4.11A10.74,10.74,0,0,1,3.12,11.5,10.52,10.52,0,0,1,6.5,9.23a10.33,10.33,0,0,1,4.15-.84,10.51,10.51,0,0,1,4.18.84,11.07,11.07,0,0,1,3.4,2.27A10.59,10.59,0,0,1,21.38,19Z"/><path class="cls-1" d="M14.47,14.83a8.35,8.35,0,0,0,6.85-.9c3.25-2.17,3.25-10.37,3.25-10.37s-9.34,3.11-10.1,5.63A12.39,12.39,0,0,0,14.47,14.83Z"/><circle class="cls-3" cx="4.14" cy="20.46" r="0.95"/><circle class="cls-4" cx="4.74" cy="17.2" r="1.55"/></g></g></svg>