<svg xmlns="http://www.w3.org/2000/svg" xmlns:xlink="http://www.w3.org/1999/xlink" viewBox="0 0 14.95 17.85"><defs><style>.cls-1{fill:#656256;stroke:#fff;stroke-miterlimit:10;stroke-width:0.25px;}.cls-2{fill:url(#linear-gradient);}.cls-3,.cls-4{fill:#fff;}.cls-3{opacity:0.8;}</style><linearGradient id="linear-gradient" x1="8.47" y1="8.43" x2="6.43" y2="11.5" gradientUnits="userSpaceOnUse"><stop offset="0" stop-color="#938ba1"/><stop offset="1" stop-color="#838bc5"/></linearGradient></defs><title>Asset 5</title><g id="Layer_2" data-name="Layer 2"><g id="Layer_1-2" data-name="Layer 1"><path class="cls-1" d="M7.14,7a3.94,3.94,0,0,0,3-1.25c1.22-1.38.08-5.56.08-5.56S6.7,3.52,6.66,4.77A5.22,5.22,0,0,0,7.14,7Z"/><path class="cls-2" d="M12.9,11.46A6.09,6.09,0,0,1,12.39,14,6.23,6.23,0,0,1,11,16,6.41,6.41,0,0,1,9,17.34a6.31,6.31,0,0,1-2.52.51,6.22,6.22,0,0,1-2.51-.51,6.16,6.16,0,0,1-2-1.37A6.5,6.5,0,0,1,.51,14a6.31,6.31,0,0,1,0-5,6.48,6.48,0,0,1,1.37-2,6.31,6.31,0,0,1,2-1.37,6.22,6.22,0,0,1,2.51-.51A6.31,6.31,0,0,1,9,5.57,6.58,6.58,0,0,1,11,6.94a6.21,6.21,0,0,1,1.39,2A6.15,6.15,0,0,1,12.9,11.46Z"/><path class="cls-1" d="M8.73,9a5.06,5.06,0,0,0,4.14-.54c2-1.31,2-6.26,2-6.26S9.19,4,8.73,5.55A7.54,7.54,0,0,0,8.73,9Z"/><circle class="cls-3" cx="2.5" cy="12.35" r="0.57"/><circle class="cls-4" cx="2.86" cy="10.38" r="0.94"/></g></g></svg>