<svg xmlns="http://www.w3.org/2000/svg" viewBox="0 0 368.38 67.04"><defs><style>.cls-1{fill:#0d160b;}</style></defs><title>Asset 4</title><g id="Layer_2" data-name="Layer 2"><g id="Layer_1-2" data-name="Layer 1"><path class="cls-1" d="M38.46,33.47A20.88,20.88,0,0,1,37,41.55a19.33,19.33,0,0,1-4.11,6.28,18.36,18.36,0,0,1-6.1,4.06,19.58,19.58,0,0,1-7.51,1.44A18.95,18.95,0,0,1,5.64,47.74a19.5,19.5,0,0,1-4.13-6.27,20.62,20.62,0,0,1-1.51-8V0H9.63V17.58a9,9,0,0,1,1.88-1.76,11.63,11.63,0,0,1,2.39-1.27,15.88,15.88,0,0,1,2.66-.75,13.72,13.72,0,0,1,2.67-.26A18.89,18.89,0,0,1,26.74,15a18.66,18.66,0,0,1,6.1,4.17A19.91,19.91,0,0,1,37,25.51,20.49,20.49,0,0,1,38.46,33.47Zm-9.67,0A10.86,10.86,0,0,0,28,29.41,10.13,10.13,0,0,0,26,26.16a9.45,9.45,0,0,0-3-2.15,9.13,9.13,0,0,0-3.71-.77,8.32,8.32,0,0,0-3.71.86,10.33,10.33,0,0,0-3,2.28,10.61,10.61,0,0,0-2,3.27,10.26,10.26,0,0,0-.74,3.82,10.91,10.91,0,0,0,.74,4,10,10,0,0,0,2,3.24,9.79,9.79,0,0,0,3,2.16,9.11,9.11,0,0,0,7.42,0,9.79,9.79,0,0,0,3-2.16A10.42,10.42,0,0,0,28,37.51,10.72,10.72,0,0,0,28.79,33.47Z"/><path class="cls-1" d="M70.65,48.23a25.41,25.41,0,0,1-2.48,2,19.16,19.16,0,0,1-2.76,1.62,17.63,17.63,0,0,1-3,1.09,12.12,12.12,0,0,1-3.11.4,17.33,17.33,0,0,1-6.54-1.23,15.87,15.87,0,0,1-9-9,19.21,19.21,0,0,1-1.31-7.29V15h9.56V35.79a9.23,9.23,0,0,0,.58,3.39,7.42,7.42,0,0,0,1.56,2.52,6.55,6.55,0,0,0,2.31,1.54,7.54,7.54,0,0,0,2.83.53,5.94,5.94,0,0,0,2.79-.69,7.62,7.62,0,0,0,2.3-1.81A8.71,8.71,0,0,0,66,38.72a8,8,0,0,0,.56-2.93V15h9.6V52.63H73.81Z"/><path class="cls-1" d="M119,33.47a20.46,20.46,0,0,1-1.51,7.86,19.67,19.67,0,0,1-4.12,6.29,19.21,19.21,0,0,1-6.1,4.18,19.07,19.07,0,0,1-15,0,19.3,19.3,0,0,1-6.12-4.18,19.53,19.53,0,0,1-4.13-6.29,20.27,20.27,0,0,1-1.51-7.86,20.58,20.58,0,0,1,1.51-7.95,19.51,19.51,0,0,1,4.13-6.31,18.92,18.92,0,0,1,6.12-4.16,18.57,18.57,0,0,1,7.47-1.51,19.67,19.67,0,0,1,7.5,1.42,18.21,18.21,0,0,1,6.1,4,19.24,19.24,0,0,1,4.12,6.29A21.47,21.47,0,0,1,119,33.47Zm-9.67,0a11,11,0,0,0-.76-4.2,10.06,10.06,0,0,0-2-3.24,8.93,8.93,0,0,0-3-2.07,9.92,9.92,0,0,0-7.42,0,8.8,8.8,0,0,0-3,2.07,10,10,0,0,0-2,3.24,11.42,11.42,0,0,0-.74,4.2,10.91,10.91,0,0,0,.74,4,10.32,10.32,0,0,0,2,3.24,9.64,9.64,0,0,0,3,2.16,8.8,8.8,0,0,0,3.71.79,9.45,9.45,0,0,0,3.71-.74,9.22,9.22,0,0,0,3-2.07,9.75,9.75,0,0,0,2-3.24A11.07,11.07,0,0,0,109.37,33.47Z"/><path class="cls-1" d="M133.15,52.63h-9.6V15h2.32L129,18.63a16.85,16.85,0,0,1,11.39-4.39,16.21,16.21,0,0,1,6.5,1.32,16.86,16.86,0,0,1,5.35,3.62,17.16,17.16,0,0,1,3.6,5.38,16.42,16.42,0,0,1,1.32,6.55V52.63h-9.6V31.11A7.16,7.16,0,0,0,145.49,26a7.26,7.26,0,0,0-2.28-1.55,6.87,6.87,0,0,0-2.78-.56,7.19,7.19,0,0,0-7.28,7.2Z"/><path class="cls-1" d="M199.68,47.88a18.49,18.49,0,0,1-1.51,7.46A19.37,19.37,0,0,1,194,61.42a19.61,19.61,0,0,1-6.12,4.11A18.57,18.57,0,0,1,180.45,67L175.64,67V57.38l4.74.07a11.41,11.41,0,0,0,3.84-.58A7.81,7.81,0,0,0,188.63,53a14.31,14.31,0,0,0,1-2.74,4.15,4.15,0,0,1-1.61,1.49,11.12,11.12,0,0,1-2.34,1,14.66,14.66,0,0,1-2.67.51,24.14,24.14,0,0,1-2.59.14A20.19,20.19,0,0,1,173,52,17.91,17.91,0,0,1,162.73,41.8a22,22,0,0,1-1.51-8.33,20.64,20.64,0,0,1,1.51-7.91,19.63,19.63,0,0,1,4.14-6.33A18.88,18.88,0,0,1,173,15.05a18.61,18.61,0,0,1,7.47-1.51,14.77,14.77,0,0,1,3.62.45,19.2,19.2,0,0,1,3.49,1.27,21.67,21.67,0,0,1,3.21,1.9,26.21,26.21,0,0,1,2.87,2.35l3.72-4.46h2.32ZM190,33.47a10.09,10.09,0,0,0-.76-3.82,10.86,10.86,0,0,0-2.06-3.27,10.2,10.2,0,0,0-3-2.28,8.29,8.29,0,0,0-3.71-.86,10.18,10.18,0,0,0-3.71.67,8.37,8.37,0,0,0-3,2,9.16,9.16,0,0,0-2,3.21,12.19,12.19,0,0,0-.74,4.38,11.6,11.6,0,0,0,.74,4.24,9.75,9.75,0,0,0,2,3.21,8.87,8.87,0,0,0,3,2.06,9.62,9.62,0,0,0,3.71.72,8.29,8.29,0,0,0,3.71-.86,10.23,10.23,0,0,0,3-2.29,10.86,10.86,0,0,0,2.06-3.27A10,10,0,0,0,190,33.47Z"/><path class="cls-1" d="M206.2,15V52.63h9.67V15Z"/><path class="cls-1" d="M258.78,33.47a20.46,20.46,0,0,1-1.51,7.86,19.67,19.67,0,0,1-4.12,6.29,19.1,19.1,0,0,1-6.1,4.18,19.07,19.07,0,0,1-15,0,19.24,19.24,0,0,1-10.25-10.47,20.27,20.27,0,0,1-1.51-7.86,20.58,20.58,0,0,1,1.51-7.95A19.51,19.51,0,0,1,226,19.21a19.14,19.14,0,0,1,6.12-4.16,18.57,18.57,0,0,1,7.47-1.51,19.67,19.67,0,0,1,7.5,1.42,18.11,18.11,0,0,1,6.1,4,19.24,19.24,0,0,1,4.12,6.29A21.47,21.47,0,0,1,258.78,33.47Zm-9.67,0a11,11,0,0,0-.76-4.2,9.89,9.89,0,0,0-2-3.24,8.93,8.93,0,0,0-3-2.07,9.92,9.92,0,0,0-7.42,0,8.66,8.66,0,0,0-3,2.07,10,10,0,0,0-2,3.24,11.43,11.43,0,0,0-.73,4.2,10.91,10.91,0,0,0,.73,4,10.35,10.35,0,0,0,2,3.24,9.48,9.48,0,0,0,3,2.16,8.83,8.83,0,0,0,3.71.79,9.45,9.45,0,0,0,3.71-.74,9.22,9.22,0,0,0,3-2.07,9.59,9.59,0,0,0,2-3.24A11.07,11.07,0,0,0,249.11,33.47Z"/><path class="cls-1" d="M272.89,52.63H263.3V15h2.32l3.16,4.46a16.95,16.95,0,0,1,11.39-4.39h8.47v9.56h-8.47a7.35,7.35,0,0,0-2.85.56A7.09,7.09,0,0,0,273.46,29a7.18,7.18,0,0,0-.57,2.85Z"/><path class="cls-1" d="M301.91,52.63h-9.59V15h2.32l3.16,3.65a16.9,16.9,0,0,1,11.39-4.39,16.18,16.18,0,0,1,6.5,1.32A16.75,16.75,0,0,1,321,19.18a17.16,17.16,0,0,1,3.6,5.38A16.42,16.42,0,0,1,326,31.11V52.63h-9.6V31.11A7.16,7.16,0,0,0,314.25,26,7,7,0,0,0,312,24.47a6.84,6.84,0,0,0-2.78-.56,7.18,7.18,0,0,0-6.71,4.41,7,7,0,0,0-.57,2.79Z"/><path class="cls-1" d="M368.38,33.47a20.28,20.28,0,0,1-1.52,7.86,19.65,19.65,0,0,1-4.11,6.29,19.21,19.21,0,0,1-6.1,4.18,19.1,19.1,0,0,1-15,0,19.27,19.27,0,0,1-10.24-10.47,20.28,20.28,0,0,1-1.52-7.86,20.58,20.58,0,0,1,1.52-7.95,19.35,19.35,0,0,1,4.13-6.31,19,19,0,0,1,6.11-4.16,18.66,18.66,0,0,1,7.48-1.51,19.67,19.67,0,0,1,7.5,1.42,18.21,18.21,0,0,1,6.1,4,19.22,19.22,0,0,1,4.11,6.29A21.29,21.29,0,0,1,368.38,33.47Zm-9.67,0a11,11,0,0,0-.76-4.2A10.06,10.06,0,0,0,355.9,26a9,9,0,0,0-3-2.07,9.89,9.89,0,0,0-7.41,0,8.8,8.8,0,0,0-3,2.07,10,10,0,0,0-2,3.24,11.42,11.42,0,0,0-.74,4.2,10.91,10.91,0,0,0,.74,4,10.32,10.32,0,0,0,2,3.24,9.64,9.64,0,0,0,3,2.16,8.8,8.8,0,0,0,3.71.79,9.4,9.4,0,0,0,3.7-.74,9.26,9.26,0,0,0,3-2.07A9.75,9.75,0,0,0,358,37.65,11.07,11.07,0,0,0,358.71,33.47Z"/></g></g></svg>